<svg xmlns="http://www.w3.org/2000/svg" xmlns:xlink="http://www.w3.org/1999/xlink" width="1920" zoomAndPan="magnify" viewBox="0 0 1440 809.999993" height="1080" preserveAspectRatio="xMidYMid meet" version="1.0"><path fill="#6191dc" d="M 834.574219 405.15625 C 833.679688 402.839844 829.433594 397.027344 829.433594 397.027344 C 823.0625 388.328125 816.613281 381.097656 810.144531 375.136719 C 805.390625 370.757812 800.625 367.066406 795.871094 363.996094 C 795.855469 363.984375 795.839844 363.976562 795.824219 363.964844 C 795.582031 363.808594 795.339844 363.652344 795.101562 363.5 C 792.847656 361.558594 788.253906 358.203125 780.902344 355.417969 C 763.046875 344.355469 741.203125 339.472656 720.300781 342.417969 C 701.613281 345.046875 680.863281 351.671875 669.792969 367.40625 C 666.695312 371.808594 668.144531 377.941406 672.800781 380.628906 C 675.050781 381.929688 677.019531 383.042969 678.648438 383.957031 C 673.152344 388.90625 668.5625 393.988281 665.269531 398.878906 L 620.304688 376.890625 C 620.300781 376.894531 604.808594 399.066406 620.671875 432.691406 L 620.679688 432.6875 L 620.671875 432.691406 L 664.320312 414.722656 L 664.308594 415.007812 C 669.09375 420.011719 673.796875 424.535156 678.425781 428.621094 C 676.839844 429.464844 674.949219 430.480469 672.800781 431.652344 C 668.144531 434.199219 666.695312 440.007812 669.792969 444.171875 C 680.863281 459.070312 701.613281 465.339844 720.300781 467.832031 C 741.207031 470.617188 763.058594 465.992188 780.917969 455.511719 C 815.53125 441.296875 835.058594 406.410156 834.574219 405.15625 Z M 834.574219 405.15625 " fill-opacity="1" fill-rule="nonzero"/><path fill="#4575ba" d="M 780.917969 455.511719 C 763.058594 465.992188 741.207031 470.617188 720.300781 467.832031 C 701.613281 465.339844 680.863281 459.070312 669.792969 444.171875 C 666.695312 440.007812 668.144531 434.199219 672.800781 431.652344 C 674.949219 430.480469 676.839844 429.464844 678.425781 428.621094 C 679.09375 429.210938 679.757812 429.789062 680.421875 430.359375 C 678.527344 431.476562 676.632812 432.59375 674.738281 433.714844 C 673.941406 434.183594 673.148438 434.652344 672.351562 435.121094 C 670.992188 435.925781 672.226562 438.050781 673.589844 437.246094 C 676.53125 435.511719 679.46875 433.777344 682.40625 432.042969 C 684.636719 433.910156 686.851562 435.675781 689.042969 437.339844 C 686.125 439.0625 683.207031 440.785156 680.292969 442.507812 C 679.496094 442.976562 678.703125 443.445312 677.90625 443.914062 C 676.546875 444.71875 677.78125 446.84375 679.144531 446.039062 C 683.15625 443.671875 687.164062 441.304688 691.175781 438.9375 C 693.332031 440.519531 695.46875 442.011719 697.582031 443.410156 C 694.222656 445.390625 690.863281 447.375 687.5 449.359375 C 686.707031 449.828125 685.910156 450.296875 685.117188 450.769531 C 683.753906 451.570312 684.988281 453.695312 686.355469 452.890625 C 690.867188 450.226562 695.378906 447.5625 699.890625 444.898438 C 702.160156 446.335938 704.40625 447.664062 706.628906 448.894531 C 703.558594 450.707031 700.488281 452.515625 697.421875 454.328125 C 696.625 454.796875 695.832031 455.265625 695.035156 455.734375 C 693.675781 456.539062 694.910156 458.664062 696.273438 457.859375 C 700.570312 455.324219 704.863281 452.789062 709.15625 450.253906 C 712.085938 451.785156 714.96875 453.140625 717.8125 454.332031 C 714.863281 456.074219 711.914062 457.8125 708.964844 459.554688 C 708.171875 460.023438 707.375 460.492188 706.582031 460.960938 C 705.222656 461.765625 706.453125 463.890625 707.820312 463.085938 C 712.109375 460.554688 716.394531 458.023438 720.683594 455.492188 C 724.460938 456.945312 728.15625 458.101562 731.773438 459 C 729.507812 460.339844 727.242188 461.675781 724.972656 463.015625 C 724.179688 463.484375 723.382812 463.953125 722.589844 464.421875 C 721.226562 465.226562 722.460938 467.351562 723.828125 466.546875 C 727.640625 464.296875 731.453125 462.046875 735.265625 459.792969 C 739.371094 460.636719 743.367188 461.136719 747.253906 461.34375 C 746.214844 461.957031 745.171875 462.570312 744.128906 463.1875 C 743.335938 463.65625 742.539062 464.125 741.746094 464.59375 C 740.382812 465.398438 741.617188 467.523438 742.984375 466.71875 C 745.957031 464.964844 748.929688 463.207031 751.902344 461.453125 C 762.484375 461.375 772.179688 459.101562 780.917969 455.511719 Z M 672.800781 380.628906 C 675.050781 381.929688 677.019531 383.042969 678.648438 383.957031 C 679.878906 382.847656 681.160156 381.742188 682.476562 380.652344 C 679.085938 378.621094 675.691406 376.59375 672.300781 374.5625 C 670.945312 373.75 672.179688 371.625 673.539062 372.441406 C 674.332031 372.914062 675.125 373.386719 675.917969 373.863281 C 678.78125 375.574219 681.644531 377.289062 684.507812 379 C 686.707031 377.25 689.003906 375.535156 691.386719 373.867188 C 686.890625 371.179688 682.398438 368.492188 677.90625 365.800781 C 676.550781 364.992188 677.785156 362.867188 679.144531 363.679688 C 679.9375 364.152344 680.730469 364.628906 681.519531 365.101562 C 685.550781 367.511719 689.582031 369.921875 693.613281 372.332031 C 695.792969 370.863281 698.03125 369.4375 700.316406 368.0625 C 695.261719 365.039062 690.207031 362.015625 685.152344 358.992188 C 683.796875 358.179688 685.035156 356.054688 686.394531 356.867188 C 687.183594 357.34375 687.976562 357.816406 688.769531 358.289062 C 693.421875 361.074219 698.078125 363.855469 702.730469 366.640625 C 705.03125 365.3125 707.375 364.042969 709.746094 362.839844 C 704.867188 359.921875 699.984375 357 695.101562 354.082031 C 693.746094 353.269531 694.984375 351.144531 696.34375 351.957031 C 697.132812 352.433594 697.925781 352.90625 698.71875 353.378906 C 703.269531 356.101562 707.816406 358.820312 712.367188 361.542969 C 715.300781 360.128906 718.269531 358.820312 721.25 357.636719 C 716.390625 354.734375 711.535156 351.828125 706.679688 348.921875 C 705.320312 348.113281 706.558594 345.988281 707.917969 346.800781 C 708.710938 347.273438 709.503906 347.746094 710.292969 348.222656 C 714.921875 350.988281 719.546875 353.753906 724.171875 356.523438 C 727.890625 355.15625 731.613281 353.996094 735.289062 353.082031 C 731.097656 350.574219 726.902344 348.0625 722.707031 345.554688 C 721.347656 344.742188 722.585938 342.617188 723.945312 343.429688 C 724.738281 343.90625 725.527344 344.378906 726.320312 344.851562 C 730.464844 347.332031 734.613281 349.8125 738.757812 352.289062 C 742.835938 351.445312 746.835938 350.925781 750.699219 350.78125 C 747.753906 349.019531 744.808594 347.257812 741.863281 345.492188 C 740.503906 344.683594 741.742188 342.558594 743.101562 343.371094 C 743.894531 343.84375 744.6875 344.320312 745.476562 344.792969 C 748.808594 346.785156 752.136719 348.777344 755.46875 350.769531 C 766.175781 351.042969 774.566406 353.019531 780.902344 355.417969 C 763.046875 344.355469 741.203125 339.472656 720.300781 342.417969 C 701.613281 345.046875 680.863281 351.671875 669.792969 367.40625 C 666.695312 371.808594 668.144531 377.941406 672.800781 380.628906 Z M 672.800781 380.628906 " fill-opacity="1" fill-rule="nonzero"/><path fill="#383c61" d="M 810.144531 375.136719 C 809.546875 374.589844 808.953125 374.050781 808.359375 373.527344 C 804.199219 369.84375 800.03125 366.683594 795.871094 363.996094 C 795.855469 363.984375 795.839844 363.976562 795.824219 363.964844 C 795.601562 363.820312 795.378906 363.6875 795.15625 363.546875 C 795.136719 363.53125 795.117188 363.515625 795.101562 363.5 C 792.847656 361.558594 788.253906 358.203125 780.902344 355.417969 C 774.566406 353.019531 766.175781 351.042969 755.46875 350.769531 C 754.625 350.746094 753.769531 350.734375 752.894531 350.734375 C 752.167969 350.734375 751.4375 350.75 750.699219 350.78125 C 746.835938 350.925781 742.835938 351.445312 738.757812 352.289062 C 737.605469 352.527344 736.453125 352.792969 735.289062 353.082031 C 731.613281 353.996094 727.890625 355.15625 724.171875 356.523438 C 723.195312 356.878906 722.222656 357.253906 721.25 357.636719 C 718.269531 358.820312 715.300781 360.128906 712.367188 361.542969 C 711.488281 361.964844 710.617188 362.398438 709.746094 362.839844 C 707.375 364.042969 705.03125 365.3125 702.730469 366.640625 C 701.921875 367.105469 701.117188 367.582031 700.316406 368.0625 C 698.03125 369.4375 695.792969 370.863281 693.613281 372.332031 C 692.863281 372.839844 692.121094 373.351562 691.386719 373.867188 C 689.003906 375.535156 686.707031 377.25 684.507812 379 C 683.820312 379.546875 683.144531 380.097656 682.476562 380.652344 C 681.160156 381.742188 679.878906 382.847656 678.648438 383.957031 C 673.152344 388.90625 668.5625 393.988281 665.269531 398.878906 L 620.304688 376.890625 L 658.371094 403.042969 L 664 406.910156 L 658.714844 410.054688 L 620.679688 432.6875 L 620.671875 432.691406 L 664.320312 414.722656 L 667.617188 413.367188 C 687.625 414.089844 691.925781 414.082031 709.015625 414.292969 C 714.796875 414.363281 721.617188 414.765625 728.332031 414.632812 C 728.265625 414.070312 728.210938 413.503906 728.164062 412.9375 C 727.425781 403.914062 729.648438 394.289062 735.414062 387.882812 C 741.085938 392.265625 747.230469 397.445312 753.332031 402.554688 C 755.027344 403.96875 756.714844 405.378906 758.390625 406.769531 C 759.945312 404.640625 761.308594 402.34375 762.480469 400.027344 C 764.382812 396.25 765.753906 392.242188 767.089844 388.234375 C 767.734375 386.300781 768.378906 384.367188 769.101562 382.460938 C 769.261719 382.046875 769.421875 381.632812 769.585938 381.21875 C 769.617188 381.144531 769.773438 380.765625 769.789062 380.722656 C 769.816406 380.664062 769.84375 380.601562 769.871094 380.539062 C 770.257812 379.648438 770.675781 378.769531 771.125 377.90625 C 771.152344 377.855469 771.179688 377.804688 771.207031 377.753906 C 770.6875 379.59375 770.402344 381.539062 770.402344 383.550781 C 770.402344 395.164062 779.6875 404.578125 791.140625 404.578125 C 802.589844 404.578125 811.875 395.164062 811.875 383.550781 C 811.875 380.558594 811.253906 377.714844 810.144531 375.136719 Z M 722.242188 401.210938 C 715.070312 402.980469 705.960938 403.578125 696.070312 400.234375 C 687.894531 397.472656 689.160156 388.46875 697.867188 386.871094 C 704.691406 385.617188 713.1875 385.289062 722.414062 387.765625 C 730.882812 390.035156 730.78125 399.105469 722.242188 401.210938 Z M 804.375 389.515625 C 803.902344 394.382812 799.246094 397.949219 793.976562 397.484375 C 788.710938 397.015625 784.820312 392.691406 785.292969 387.828125 C 785.769531 382.960938 790.421875 379.394531 795.691406 379.859375 C 800.960938 380.328125 804.847656 384.652344 804.375 389.515625 Z M 828.660156 414.382812 C 822.308594 416.902344 814.808594 415.421875 809.71875 410.929688 C 809.054688 410.339844 809.125 409.207031 809.71875 408.609375 C 810.371094 407.957031 811.371094 408.023438 812.035156 408.609375 C 816.300781 412.378906 822.542969 413.304688 827.789062 411.222656 C 828.617188 410.894531 829.589844 411.585938 829.804688 412.367188 C 830.054688 413.289062 829.480469 414.058594 828.660156 414.382812 Z M 771.320312 397.902344 L 771.628906 430.011719 C 767.132812 427.617188 763.679688 423.929688 761.855469 419.835938 C 763.96875 418.210938 766.089844 416.519531 768.242188 414.707031 C 768.269531 414.726562 768.296875 414.746094 768.320312 414.769531 L 768.34375 414.625 C 768.308594 414.652344 768.277344 414.679688 768.242188 414.707031 C 765.925781 412.914062 763.527344 410.984375 761.085938 408.988281 C 762.535156 404.320312 766.230469 400.210938 771.320312 397.902344 Z M 802.402344 389.316406 C 802.023438 393.210938 798.300781 396.0625 794.085938 395.6875 C 789.941406 395.320312 786.875 391.972656 787.132812 388.164062 C 787.683594 388.691406 788.441406 389.015625 789.277344 389.015625 C 790.964844 389.015625 792.332031 387.695312 792.332031 386.066406 C 792.332031 384.632812 791.273438 383.4375 789.871094 383.171875 C 791.375 382.023438 793.355469 381.410156 795.457031 381.59375 C 799.671875 381.96875 802.78125 385.425781 802.402344 389.316406 Z M 802.402344 389.316406 " fill-opacity="1" fill-rule="nonzero"/><path fill="#6191dc" d="M 834.574219 405.15625 C 833.679688 402.839844 829.433594 397.027344 829.433594 397.027344 C 823.0625 388.328125 816.613281 381.097656 810.144531 375.136719 C 811.253906 377.714844 811.875 380.558594 811.875 383.550781 C 811.875 395.164062 802.589844 404.578125 791.140625 404.578125 C 779.6875 404.578125 770.402344 395.164062 770.402344 383.550781 C 770.402344 381.539062 770.6875 379.59375 771.207031 377.753906 C 771.179688 377.804688 771.152344 377.855469 771.125 377.90625 C 770.675781 378.769531 770.261719 379.648438 769.871094 380.539062 C 769.84375 380.601562 769.816406 380.664062 769.789062 380.722656 C 769.773438 380.765625 769.617188 381.144531 769.585938 381.21875 C 769.421875 381.632812 769.261719 382.046875 769.101562 382.460938 C 768.378906 384.367188 767.734375 386.300781 767.089844 388.234375 C 765.753906 392.242188 764.382812 396.25 762.480469 400.027344 C 761.308594 402.34375 759.945312 404.640625 758.390625 406.769531 C 759.292969 407.515625 760.191406 408.253906 761.085938 408.988281 C 762.535156 404.320312 766.230469 400.210938 771.320312 397.902344 L 771.628906 430.011719 C 767.132812 427.617188 763.679688 423.929688 761.855469 419.835938 C 753.785156 426.042969 745.824219 431.257812 736.460938 438.261719 C 732.558594 430.964844 729.328125 423.027344 728.332031 414.632812 C 721.617188 414.765625 714.796875 414.363281 709.015625 414.292969 C 691.925781 414.082031 687.625 414.089844 667.617188 413.367188 L 664.320312 414.722656 L 664.308594 415.007812 C 669.09375 420.011719 673.796875 424.535156 678.425781 428.621094 C 679.09375 429.210938 679.757812 429.789062 680.421875 430.359375 C 681.085938 430.929688 681.746094 431.488281 682.40625 432.042969 C 684.636719 433.910156 686.851562 435.675781 689.042969 437.339844 C 689.753906 437.882812 690.46875 438.414062 691.175781 438.9375 C 693.332031 440.519531 695.46875 442.011719 697.582031 443.410156 C 698.355469 443.917969 699.125 444.414062 699.890625 444.898438 C 702.160156 446.335938 704.40625 447.664062 706.628906 448.894531 C 707.472656 449.363281 708.316406 449.816406 709.15625 450.253906 C 712.085938 451.785156 714.96875 453.140625 717.8125 454.332031 C 718.773438 454.734375 719.730469 455.125 720.683594 455.492188 C 724.460938 456.945312 728.15625 458.101562 731.773438 459 C 732.945312 459.292969 734.109375 459.558594 735.265625 459.792969 C 739.371094 460.636719 743.367188 461.136719 747.253906 461.34375 C 748.820312 461.425781 750.371094 461.464844 751.902344 461.453125 C 762.484375 461.375 772.179688 459.101562 780.917969 455.511719 C 815.53125 441.296875 835.058594 406.410156 834.574219 405.15625 Z M 828.660156 414.382812 C 822.308594 416.902344 814.808594 415.421875 809.71875 410.929688 C 809.054688 410.339844 809.125 409.207031 809.71875 408.609375 C 810.371094 407.957031 811.371094 408.023438 812.035156 408.609375 C 816.300781 412.378906 822.542969 413.304688 827.789062 411.222656 C 828.617188 410.894531 829.589844 411.585938 829.804688 412.367188 C 830.054688 413.289062 829.480469 414.058594 828.660156 414.382812 Z M 795.15625 363.546875 C 795.136719 363.53125 795.117188 363.515625 795.101562 363.5 C 795.339844 363.652344 795.582031 363.808594 795.824219 363.964844 C 795.601562 363.820312 795.378906 363.6875 795.15625 363.546875 Z M 805.238281 370.863281 C 802.113281 368.292969 798.992188 366.011719 795.871094 363.996094 C 798.992188 366.011719 802.113281 368.292969 805.238281 370.863281 Z M 697.867188 386.871094 C 704.691406 385.617188 713.1875 385.289062 722.414062 387.765625 C 730.882812 390.035156 730.78125 399.105469 722.242188 401.210938 C 715.070312 402.980469 705.960938 403.578125 696.070312 400.234375 C 687.894531 397.472656 689.160156 388.46875 697.867188 386.871094 Z M 697.867188 386.871094 " fill-opacity="1" fill-rule="nonzero"/><path fill="#ffe05c" d="M 673.539062 372.441406 C 674.332031 372.914062 675.125 373.386719 675.917969 373.863281 C 678.78125 375.574219 681.644531 377.289062 684.507812 379 C 683.820312 379.546875 683.144531 380.097656 682.476562 380.652344 C 679.085938 378.621094 675.691406 376.59375 672.300781 374.5625 C 670.945312 373.75 672.179688 371.625 673.539062 372.441406 Z M 677.90625 365.800781 C 682.398438 368.492188 686.890625 371.179688 691.386719 373.867188 C 692.121094 373.351562 692.863281 372.839844 693.613281 372.332031 C 689.582031 369.921875 685.550781 367.511719 681.519531 365.101562 C 680.730469 364.628906 679.9375 364.152344 679.144531 363.679688 C 677.785156 362.867188 676.550781 364.992188 677.90625 365.800781 Z M 685.152344 358.992188 C 690.207031 362.015625 695.261719 365.039062 700.316406 368.0625 C 701.117188 367.582031 701.921875 367.105469 702.730469 366.640625 C 698.078125 363.855469 693.421875 361.074219 688.769531 358.289062 C 687.976562 357.816406 687.183594 357.34375 686.394531 356.867188 C 685.035156 356.054688 683.796875 358.179688 685.152344 358.992188 Z M 695.101562 354.082031 C 699.984375 357 704.867188 359.921875 709.746094 362.839844 C 710.617188 362.398438 711.488281 361.964844 712.367188 361.542969 C 707.816406 358.820312 703.269531 356.101562 698.71875 353.378906 C 697.925781 352.90625 697.132812 352.433594 696.34375 351.957031 C 694.984375 351.144531 693.746094 353.269531 695.101562 354.082031 Z M 710.292969 348.222656 C 709.503906 347.746094 708.710938 347.273438 707.917969 346.800781 C 706.558594 345.988281 705.320312 348.113281 706.679688 348.921875 C 711.535156 351.828125 716.390625 354.734375 721.25 357.636719 C 722.222656 357.253906 723.195312 356.878906 724.171875 356.523438 C 719.546875 353.753906 714.921875 350.988281 710.292969 348.222656 Z M 722.707031 345.554688 C 726.902344 348.0625 731.097656 350.574219 735.289062 353.082031 C 736.453125 352.792969 737.605469 352.527344 738.757812 352.289062 C 734.613281 349.8125 730.464844 347.332031 726.320312 344.851562 C 725.527344 344.378906 724.738281 343.90625 723.945312 343.429688 C 722.585938 342.617188 721.347656 344.742188 722.707031 345.554688 Z M 741.863281 345.492188 C 744.808594 347.257812 747.753906 349.019531 750.699219 350.78125 C 751.4375 350.75 752.167969 350.734375 752.894531 350.734375 C 753.769531 350.734375 754.625 350.746094 755.46875 350.769531 C 752.136719 348.777344 748.808594 346.785156 745.476562 344.792969 C 744.6875 344.320312 743.894531 343.84375 743.101562 343.371094 C 741.742188 342.558594 740.503906 344.683594 741.863281 345.492188 Z M 680.421875 430.359375 C 678.527344 431.476562 676.632812 432.59375 674.738281 433.714844 C 673.941406 434.183594 673.148438 434.652344 672.351562 435.121094 C 670.992188 435.925781 672.226562 438.050781 673.589844 437.246094 C 676.53125 435.511719 679.46875 433.777344 682.40625 432.042969 C 681.746094 431.488281 681.085938 430.929688 680.421875 430.359375 Z M 689.042969 437.339844 C 686.125 439.0625 683.207031 440.785156 680.292969 442.507812 C 679.496094 442.976562 678.703125 443.445312 677.90625 443.914062 C 676.546875 444.71875 677.78125 446.84375 679.144531 446.039062 C 683.15625 443.671875 687.164062 441.304688 691.175781 438.9375 C 690.46875 438.414062 689.753906 437.882812 689.042969 437.339844 Z M 697.582031 443.410156 C 694.222656 445.390625 690.863281 447.375 687.5 449.359375 C 686.707031 449.828125 685.910156 450.296875 685.117188 450.769531 C 683.753906 451.570312 684.988281 453.695312 686.355469 452.890625 C 690.867188 450.226562 695.378906 447.5625 699.890625 444.898438 C 699.125 444.414062 698.355469 443.917969 697.582031 443.410156 Z M 706.628906 448.894531 C 703.558594 450.707031 700.488281 452.515625 697.421875 454.328125 C 696.625 454.796875 695.832031 455.265625 695.035156 455.734375 C 693.675781 456.539062 694.910156 458.664062 696.273438 457.859375 C 700.570312 455.324219 704.863281 452.789062 709.15625 450.253906 C 708.316406 449.816406 707.472656 449.363281 706.628906 448.894531 Z M 708.964844 459.554688 C 708.171875 460.023438 707.375 460.492188 706.582031 460.960938 C 705.222656 461.765625 706.453125 463.890625 707.820312 463.085938 C 712.109375 460.554688 716.394531 458.023438 720.683594 455.492188 C 719.730469 455.125 718.773438 454.734375 717.8125 454.332031 C 714.863281 456.074219 711.914062 457.8125 708.964844 459.554688 Z M 724.972656 463.015625 C 724.179688 463.484375 723.382812 463.953125 722.589844 464.421875 C 721.226562 465.226562 722.460938 467.351562 723.828125 466.546875 C 727.640625 464.296875 731.453125 462.046875 735.265625 459.792969 C 734.109375 459.558594 732.945312 459.292969 731.773438 459 C 729.507812 460.339844 727.242188 461.675781 724.972656 463.015625 Z M 744.128906 463.1875 C 743.335938 463.65625 742.539062 464.125 741.746094 464.59375 C 740.382812 465.398438 741.617188 467.523438 742.984375 466.71875 C 745.957031 464.964844 748.929688 463.207031 751.902344 461.453125 C 750.371094 461.464844 748.820312 461.425781 747.253906 461.34375 C 746.214844 461.957031 745.171875 462.570312 744.128906 463.1875 Z M 626.734375 423.570312 C 625.074219 424.277344 623.355469 424.921875 621.734375 425.722656 C 620.324219 426.421875 619.082031 424.296875 620.496094 423.597656 C 622.488281 422.613281 624.597656 421.828125 626.640625 420.960938 C 634.886719 417.460938 643.136719 413.976562 651.390625 410.496094 C 652.980469 409.824219 654.570312 409.15625 656.15625 408.484375 C 649.210938 409.386719 642.261719 410.296875 635.316406 411.222656 C 631.273438 411.757812 627.332031 412.285156 623.242188 412.863281 C 621.949219 413.042969 620.65625 413.226562 619.367188 413.425781 C 618.996094 413.484375 618.625 413.539062 618.257812 413.609375 C 617.988281 413.65625 617.621094 413.859375 618.082031 413.589844 C 616.714844 414.386719 615.480469 412.261719 616.84375 411.464844 C 617.4375 411.121094 618.3125 411.117188 618.96875 411.015625 C 620.539062 410.777344 622.109375 410.558594 623.683594 410.339844 C 632.964844 409.046875 642.253906 407.835938 651.546875 406.625 C 652.582031 406.492188 653.613281 406.359375 654.648438 406.222656 C 647.601562 404.984375 640.554688 403.75 633.503906 402.53125 C 629.484375 401.835938 625.464844 401.144531 621.441406 400.476562 C 620.171875 400.269531 618.898438 400.058594 617.625 399.863281 C 617.402344 399.828125 617.179688 399.796875 616.957031 399.765625 C 616.894531 399.753906 616.835938 399.746094 616.773438 399.738281 C 616.492188 399.710938 616.113281 399.789062 616.636719 399.65625 C 615.101562 400.042969 614.453125 397.671875 615.984375 397.285156 C 616.734375 397.09375 617.664062 397.398438 618.40625 397.511719 C 619.925781 397.746094 621.445312 398 622.960938 398.25 C 632.015625 399.761719 641.054688 401.351562 650.09375 402.9375 C 651.421875 403.167969 652.75 403.40625 654.078125 403.636719 C 647.441406 400.308594 640.808594 396.96875 634.195312 393.589844 C 630.523438 391.71875 626.855469 389.839844 623.214844 387.914062 C 622.09375 387.320312 620.972656 386.726562 619.871094 386.101562 C 619.273438 385.765625 618.523438 385.425781 618.132812 384.839844 C 617.335938 383.640625 619.007812 382.527344 619.976562 383.300781 C 619.984375 383.304688 619.992188 383.308594 620.007812 383.316406 C 620.136719 383.390625 620.257812 383.480469 620.386719 383.558594 C 620.796875 383.804688 621.210938 384.039062 621.628906 384.269531 C 623.019531 385.039062 624.425781 385.777344 625.832031 386.515625 C 633.960938 390.777344 642.164062 394.898438 650.359375 399.027344 C 653.027344 400.371094 655.699219 401.703125 658.371094 403.042969 L 620.304688 376.890625 C 620.300781 376.894531 604.808594 399.066406 620.671875 432.691406 L 620.679688 432.6875 L 658.714844 410.054688 C 651.730469 413 644.746094 415.945312 637.761719 418.898438 C 634.085938 420.453125 630.410156 422.007812 626.734375 423.570312 Z M 768.242188 414.707031 C 768.269531 414.726562 768.296875 414.746094 768.320312 414.769531 L 768.34375 414.625 C 768.308594 414.652344 768.277344 414.679688 768.242188 414.707031 Z M 758.390625 406.769531 C 756.714844 405.378906 755.027344 403.96875 753.332031 402.554688 C 747.230469 397.445312 741.085938 392.265625 735.414062 387.882812 C 729.648438 394.289062 727.425781 403.914062 728.164062 412.9375 C 728.210938 413.503906 728.265625 414.070312 728.332031 414.632812 C 729.328125 423.027344 732.558594 430.964844 736.460938 438.261719 C 745.824219 431.257812 753.785156 426.042969 761.855469 419.835938 C 763.96875 418.210938 766.089844 416.519531 768.242188 414.707031 C 765.925781 412.914062 763.527344 410.984375 761.085938 408.988281 C 760.191406 408.253906 759.292969 407.515625 758.390625 406.769531 Z M 758.390625 406.769531 " fill-opacity="1" fill-rule="nonzero"/><path fill="#fff9d9" d="M 658.371094 403.042969 L 664 406.910156 L 658.714844 410.054688 C 651.730469 413 644.746094 415.945312 637.761719 418.898438 C 634.085938 420.453125 630.410156 422.007812 626.734375 423.570312 C 625.074219 424.277344 623.355469 424.921875 621.734375 425.722656 C 620.324219 426.421875 619.082031 424.296875 620.496094 423.597656 C 622.488281 422.613281 624.597656 421.828125 626.640625 420.960938 C 634.886719 417.460938 643.136719 413.976562 651.390625 410.496094 C 652.980469 409.824219 654.570312 409.15625 656.15625 408.484375 C 649.210938 409.386719 642.261719 410.296875 635.316406 411.222656 C 631.273438 411.757812 627.332031 412.285156 623.242188 412.863281 C 621.949219 413.042969 620.65625 413.226562 619.367188 413.425781 C 618.996094 413.484375 618.625 413.539062 618.257812 413.609375 C 617.988281 413.65625 617.621094 413.859375 618.082031 413.589844 C 616.714844 414.386719 615.480469 412.261719 616.84375 411.464844 C 617.4375 411.121094 618.3125 411.117188 618.96875 411.015625 C 620.539062 410.777344 622.109375 410.558594 623.683594 410.339844 C 632.964844 409.046875 642.253906 407.835938 651.546875 406.625 C 652.582031 406.492188 653.613281 406.359375 654.648438 406.222656 C 647.601562 404.984375 640.554688 403.75 633.503906 402.53125 C 629.484375 401.835938 625.464844 401.144531 621.441406 400.476562 C 620.171875 400.269531 618.898438 400.058594 617.625 399.863281 C 617.402344 399.828125 617.179688 399.796875 616.957031 399.765625 C 616.894531 399.753906 616.835938 399.746094 616.773438 399.738281 C 616.492188 399.710938 616.113281 399.789062 616.636719 399.65625 C 615.101562 400.042969 614.453125 397.671875 615.984375 397.285156 C 616.734375 397.09375 617.664062 397.398438 618.40625 397.511719 C 619.925781 397.746094 621.445312 398 622.960938 398.25 C 632.015625 399.761719 641.054688 401.351562 650.09375 402.9375 C 651.421875 403.167969 652.75 403.40625 654.078125 403.636719 C 647.441406 400.308594 640.808594 396.96875 634.195312 393.589844 C 630.523438 391.71875 626.855469 389.839844 623.214844 387.914062 C 622.09375 387.320312 620.972656 386.726562 619.871094 386.101562 C 619.273438 385.765625 618.523438 385.425781 618.132812 384.839844 C 617.335938 383.640625 619.007812 382.527344 619.976562 383.300781 C 619.984375 383.304688 619.992188 383.308594 620.007812 383.316406 C 620.136719 383.390625 620.257812 383.480469 620.386719 383.558594 C 620.796875 383.804688 621.210938 384.039062 621.628906 384.269531 C 623.019531 385.039062 624.425781 385.777344 625.832031 386.515625 C 633.960938 390.777344 642.164062 394.898438 650.359375 399.027344 C 653.027344 400.371094 655.699219 401.703125 658.371094 403.042969 Z M 804.375 389.515625 C 803.902344 394.382812 799.246094 397.949219 793.976562 397.484375 C 788.710938 397.015625 784.820312 392.691406 785.292969 387.828125 C 785.769531 382.960938 790.421875 379.394531 795.691406 379.859375 C 800.960938 380.328125 804.847656 384.652344 804.375 389.515625 Z M 795.457031 381.59375 C 793.355469 381.410156 791.375 382.023438 789.871094 383.171875 C 791.273438 383.4375 792.332031 384.632812 792.332031 386.066406 C 792.332031 387.695312 790.964844 389.015625 789.277344 389.015625 C 788.441406 389.015625 787.683594 388.691406 787.132812 388.164062 C 786.875 391.972656 789.941406 395.320312 794.085938 395.6875 C 798.300781 396.0625 802.023438 393.210938 802.402344 389.316406 C 802.78125 385.425781 799.671875 381.96875 795.457031 381.59375 Z M 795.457031 381.59375 " fill-opacity="1" fill-rule="nonzero"/></svg>